<svg aria-hidden="true" style="position: absolute; width: 0; height: 0; overflow: hidden;" version="1.1" xmlns="http://www.w3.org/2000/svg" xmlns:xlink="http://www.w3.org/1999/xlink">
<defs>
<symbol id="icon-certificate" viewBox="0 0 32 32">
<path d="M13 19.95v2.050h12.998c0.554 0 1.002-0.449 1.002-1.007v-12.985c0-0.556-0.439-1.007-1.002-1.007h-19.995c-0.554 0-1.002 0.449-1.002 1.007v12.985c0 0.556 0.439 1.007 1.002 1.007h1.998v-2.050c-0.619-0.631-1-1.496-1-2.45 0-1.933 1.567-3.5 3.5-3.5s3.5 1.567 3.5 3.5c0 0.954-0.381 1.818-1 2.45v0 0zM9 20.663v3.937l1.5-1.5 1.5 1.5v-3.937c-0.455 0.216-0.963 0.337-1.5 0.337s-1.045-0.121-1.5-0.337v0 0zM8 23h-1.995c-1.108 0-2.005-0.895-2.005-2v-13c0-1.11 0.898-2 2.005-2h19.99c1.108 0 2.005 0.895 2.005 2v13c0 1.11-0.898 2-2.005 2h-12.995v4l-2.5-2.5-2.5 2.5v-4zM7 11v1h18v-1h-18zM16 14v1h9v-1h-9zM19 17v1h6v-1h-6zM10.5 20c1.381 0 2.5-1.119 2.5-2.5s-1.119-2.5-2.5-2.5c-1.381 0-2.5 1.119-2.5 2.5s1.119 2.5 2.5 2.5v0z"></path>
</symbol>
<symbol id="icon-groups" viewBox="0 0 24 24">
<path d="M12 12.75q1.219 0 2.297 0.258t1.922 0.633 1.313 1.125 0.469 1.594v1.641h-12v-1.594q0-0.891 0.469-1.641t1.313-1.125 1.922-0.633 2.297-0.258zM3.984 12.984q0.844 0 1.43-0.586t0.586-1.383q0-0.844-0.586-1.43t-1.43-0.586q-0.797 0-1.383 0.586t-0.586 1.43q0 0.797 0.586 1.383t1.383 0.586zM5.109 14.109q-0.234-0.047-0.516-0.070t-0.609-0.023q-0.75 0-1.43 0.141t-1.336 0.422q-0.563 0.234-0.891 0.75t-0.328 1.125v1.547h4.5v-1.594q0-1.219 0.609-2.297zM20.016 12.984q0.797 0 1.383-0.586t0.586-1.383q0-0.844-0.586-1.43t-1.383-0.586q-0.844 0-1.43 0.586t-0.586 1.43q0 0.797 0.586 1.383t1.43 0.586zM24 16.453q0-0.609-0.328-1.125t-0.891-0.75q-0.656-0.281-1.336-0.422t-1.43-0.141q-0.328 0-0.609 0.023t-0.516 0.070q0.609 1.078 0.609 2.297v1.594h4.5v-1.547zM12 6q0.844 0 1.523 0.398t1.078 1.078 0.398 1.523-0.398 1.523-1.078 1.078-1.523 0.398-1.523-0.398-1.078-1.078-0.398-1.523 0.398-1.523 1.078-1.078 1.523-0.398z"></path>
</symbol>
<symbol id="icon-home" viewBox="0 0 32 32">
<path d="M32 18.451l-16-12.42-16 12.42v-5.064l16-12.42 16 12.42zM28 18v12h-8v-8h-8v8h-8v-12l12-9z"></path>
</symbol>
<symbol id="icon-phone" viewBox="0 0 32 32">
<path d="M22 20c-2 2-2 4-4 4s-4-2-6-4-4-4-4-6 2-2 4-4-4-8-6-8-6 6-6 6c0 4 4.109 12.109 8 16s12 8 16 8c0 0 6-4 6-6s-6-8-8-6z"></path>
</symbol>
<symbol id="icon-users" viewBox="0 0 36 32">
<path d="M24 24.082v-1.649c2.203-1.241 4-4.337 4-7.432 0-4.971 0-9-6-9s-6 4.029-6 9c0 3.096 1.797 6.191 4 7.432v1.649c-6.784 0.555-12 3.888-12 7.918h28c0-4.030-5.216-7.364-12-7.918z"></path>
<path d="M10.225 24.854c1.728-1.13 3.877-1.989 6.243-2.513-0.47-0.556-0.897-1.176-1.265-1.844-0.95-1.726-1.453-3.627-1.453-5.497 0-2.689 0-5.228 0.956-7.305 0.928-2.016 2.598-3.265 4.976-3.734-0.529-2.39-1.936-3.961-5.682-3.961-6 0-6 4.029-6 9 0 3.096 1.797 6.191 4 7.432v1.649c-6.784 0.555-12 3.888-12 7.918h8.719c0.454-0.403 0.956-0.787 1.506-1.146z"></path>
</symbol>
<symbol id="icon-briefcase" viewBox="0 0 32 32">
<path d="M30 8h-8v-2c0-1.1-0.9-2-2-2h-8c-1.1 0-2 0.9-2 2v2h-8c-1.1 0-2 0.9-2 2v18c0 1.1 0.9 2 2 2h28c1.1 0 2-0.9 2-2v-18c0-1.1-0.9-2-2-2zM12 6.004c0.001-0.001 0.002-0.003 0.004-0.004h7.993c0.001 0.001 0.003 0.002 0.004 0.004v1.996h-8v-1.996zM30 16h-4v3c0 0.55-0.45 1-1 1h-2c-0.55 0-1-0.45-1-1v-3h-12v3c0 0.55-0.45 1-1 1h-2c-0.55 0-1-0.45-1-1v-3h-4v-2h28v2z"></path>
</symbol>
<symbol id="icon-location" viewBox="0 0 32 32">
<path d="M16 0c-5.523 0-10 4.477-10 10 0 10 10 22 10 22s10-12 10-22c0-5.523-4.477-10-10-10zM16 16c-3.314 0-6-2.686-6-6s2.686-6 6-6 6 2.686 6 6-2.686 6-6 6z"></path>
</symbol>
<symbol id="icon-envelop" viewBox="0 0 32 32">
<path d="M29 4h-26c-1.65 0-3 1.35-3 3v20c0 1.65 1.35 3 3 3h26c1.65 0 3-1.35 3-3v-20c0-1.65-1.35-3-3-3zM12.461 17.199l-8.461 6.59v-15.676l8.461 9.086zM5.512 8h20.976l-10.488 7.875-10.488-7.875zM12.79 17.553l3.21 3.447 3.21-3.447 6.58 8.447h-19.579l6.58-8.447zM19.539 17.199l8.461-9.086v15.676l-8.461-6.59z"></path>
</symbol>
</defs>
</svg>
